# xmcd
# 
# Track frame offsets:
#     150
#     27378
#     56086
#     86341
#     119013
#     145659
#     181550
#     222716
#     255569
#     283174
# 
# Disc length: 4189
# 
# Revision: 1
# Processed by: cddbd v1.5.2PL0 Copyright (c) Steve Scherf et al.
# Submitted via: fre:ac v1.1rc1
# 
DISCID=94105b0a
DTITLE=早間美紀 - Vibrant
DYEAR=2004
DGENRE=J-Jazz
TTITLE0=McCoy
TTITLE1=Chelsea Bridge
TTITLE2=The Pear Tree
TTITLE3=Yamabiko (やまびこ)
TTITLE4=A Beautiful Story Of My Own
TTITLE5=So In Love
TTITLE6=The End Of A Love Affair
TTITLE7=Urban Nite Talk
TTITLE8=Waiting To Hear From You
TTITLE9=The Blessing
EXTD=YEAR: 2004
EXTT0=
EXTT1=
EXTT2=
EXTT3=
EXTT4=
EXTT5=
EXTT6=
EXTT7=
EXTT8=
EXTT9=
PLAYORDER=
